<?xml version="1.0" encoding="UTF-8" standalone="no"?>
<!-- Created with Inkscape (http://www.inkscape.org/) -->

<svg
   xmlns:dc="http://purl.org/dc/elements/1.1/"
   xmlns:cc="http://creativecommons.org/ns#"
   xmlns:rdf="http://www.w3.org/1999/02/22-rdf-syntax-ns#"
   xmlns:svg="http://www.w3.org/2000/svg"
   xmlns="http://www.w3.org/2000/svg"
   xmlns:sodipodi="http://sodipodi.sourceforge.net/DTD/sodipodi-0.dtd"
   xmlns:inkscape="http://www.inkscape.org/namespaces/inkscape"
   width="744.09448819"
   height="1052.3622047"
   id="svg2"
   version="1.1"
   inkscape:version="0.48.4 r9939"
   sodipodi:docname="logo.svg"
   inkscape:export-filename="/home/mfruman/JamaJav/Inkscape/logo.png"
   inkscape:export-xdpi="120.91837"
   inkscape:export-ydpi="120.91837">
  <defs
     id="defs4" />
  <sodipodi:namedview
     id="base"
     pagecolor="#ffffff"
     bordercolor="#666666"
     borderopacity="1.0"
     inkscape:pageopacity="0.0"
     inkscape:pageshadow="2"
     inkscape:zoom="2.8130284"
     inkscape:cx="263.3084"
     inkscape:cy="449.77559"
     inkscape:document-units="px"
     inkscape:current-layer="layer1"
     showgrid="false"
     inkscape:window-width="1280"
     inkscape:window-height="753"
     inkscape:window-x="-2"
     inkscape:window-y="-3"
     inkscape:window-maximized="1" />
  <metadata
     id="metadata7">
    <rdf:RDF>
      <cc:Work
         rdf:about="">
        <dc:format>image/svg+xml</dc:format>
        <dc:type
           rdf:resource="http://purl.org/dc/dcmitype/StillImage" />
        <dc:title></dc:title>
      </cc:Work>
    </rdf:RDF>
  </metadata>
  <g
     inkscape:label="Layer 1"
     inkscape:groupmode="layer"
     id="layer1">
    <g
       id="g3968"
       inkscape:export-filename="/home/mfruman/JamaJav/Inkscape/logo.png"
       inkscape:export-xdpi="120.56"
       inkscape:export-ydpi="120.56">
      <path
         transform="matrix(0.70944723,-0.20986582,0.11680393,1.2746892,20.150365,-73.820691)"
         d="m 345.53509,557.52179 a 97.937157,31.99399 0 1 1 -195.87432,0 97.937157,31.99399 0 1 1 195.87432,0 z"
         sodipodi:ry="31.99399"
         sodipodi:rx="97.937157"
         sodipodi:cy="557.52179"
         sodipodi:cx="247.59793"
         id="path3890"
         style="fill:#d9b57c;fill-opacity:1;stroke:none"
         sodipodi:type="arc" />
      <g
         transform="matrix(0.74953571,0,0,0.69169329,52.126771,181.73851)"
         id="g3783">
        <path
           inkscape:connector-curvature="0"
           id="path2990"
           style="font-size:40px;font-style:normal;font-variant:normal;font-weight:bold;font-stretch:normal;text-align:start;line-height:125%;letter-spacing:0px;word-spacing:0px;writing-mode:lr-tb;text-anchor:start;fill:#820000;fill-opacity:1;stroke:none;font-family:ContextNavigation;-inkscape-font-specification:ContextNavigation Bold"
           d="m 192.2433,509.34566 10.68232,0 7.41222,19.96281 7.45583,-19.96281 10.66052,0 0,37.30223 -7.93545,0 0,-27.28335 -7.49942,20.11273 -5.31935,0 -7.49943,-20.11273 0,27.28335 -7.95724,0 0,-37.30223" />
        <path
           inkscape:connector-curvature="0"
           id="path2992"
           style="font-size:40px;font-style:normal;font-variant:normal;font-weight:bold;font-stretch:normal;text-align:start;line-height:125%;letter-spacing:0px;word-spacing:0px;writing-mode:lr-tb;text-anchor:start;fill:#000036;fill-opacity:1;stroke:none;font-family:ContextNavigation;-inkscape-font-specification:ContextNavigation Bold"
           d="m 244.12466,555.45924 -14.83178,0 -2.34056,9.43293 -9.53471,0 13.62454,-51.77703 11.30861,0 13.62455,51.77703 -9.53472,0 -2.31593,-9.43293 m -12.46658,-9.60632 10.07674,0 -5.02604,-20.59983 -5.0507,20.59983" />
        <path
           inkscape:connector-curvature="0"
           id="path2994"
           style="font-size:40px;font-style:normal;font-variant:normal;font-weight:bold;font-stretch:normal;text-align:start;line-height:125%;letter-spacing:0px;word-spacing:0px;writing-mode:lr-tb;text-anchor:start;fill:#660000;fill-opacity:1;stroke:none;font-family:ContextNavigation;-inkscape-font-specification:ContextNavigation Bold"
           d="m 249.07224,501.35437 10.3039,0 0,33.27046 c -1e-5,4.59073 -1.35602,8.02144 -4.06803,10.29213 -2.69419,2.27067 -6.78007,3.40601 -12.25763,3.40602 l -2.08755,0 0,-7.18227 1.60581,0 c 2.14107,-10e-6 3.75579,-0.55122 4.84416,-1.65366 1.10622,-1.10242 1.65934,-2.72316 1.65934,-4.86222 l 0,-33.27046" />
        <path
           inkscape:connector-curvature="0"
           id="path2998"
           style="font-size:40px;font-style:normal;font-variant:normal;font-weight:bold;font-stretch:normal;text-align:start;line-height:125%;letter-spacing:0px;word-spacing:0px;writing-mode:lr-tb;text-anchor:start;fill:#5e0000;fill-opacity:1;stroke:none;font-family:ContextNavigation;-inkscape-font-specification:ContextNavigation Bold"
           d="m 297.81921,519.47609 c 1.774,3e-5 3.04221,-0.46866 3.80461,-1.40608 0.77704,-0.93736 1.16557,-2.47883 1.16559,-4.62443 -2e-5,-2.12472 -0.38855,-3.64536 -1.16559,-4.56194 -0.7624,-0.91653 -2.03061,-1.37481 -3.80461,-1.37484 l -3.56272,0 0,11.96729 3.56272,0 m -3.56272,8.31148 0,17.65409 -8.46693,0 0,-46.65054 12.93132,0 c 4.32507,5e-5 7.49193,1.03117 9.50056,3.09338 2.02324,2.06228 3.03487,5.32229 3.0349,9.78005 -3e-5,3.08299 -0.52784,5.61392 -1.58343,7.59281 -1.04098,1.97894 -2.61707,3.4371 -4.72828,4.37447 1.15821,0.37496 2.19184,1.22904 3.10088,2.56219 0.92363,1.31235 1.85463,3.3121 2.79299,5.99926 l 4.59633,13.24838 -9.01674,0 -4.00255,-11.59234 c -0.8064,-2.33303 -1.62743,-3.92657 -2.46311,-4.78066 -0.82106,-0.85405 -1.92065,-1.28107 -3.2988,-1.28109 l -2.39714,0" />
        <path
           inkscape:connector-curvature="0"
           id="path2996"
           style="font-size:40px;font-style:normal;font-variant:normal;font-weight:bold;font-stretch:normal;text-align:start;line-height:125%;letter-spacing:0px;word-spacing:0px;writing-mode:lr-tb;text-anchor:start;fill:#000033;fill-opacity:1;stroke:none;font-family:ContextNavigation;-inkscape-font-specification:ContextNavigation Bold"
           d="m 273.73205,512.25203 c -2.76392,3e-5 -4.9075,1.30614 -6.43078,3.91836 -1.52329,2.61228 -2.28493,6.28951 -2.28492,11.03171 -10e-6,4.72214 0.76163,8.38932 2.28492,11.00155 1.52328,2.61227 3.66686,3.91838 6.43078,3.91838 2.77958,0 4.93102,-1.30611 6.45433,-3.91838 1.52326,-2.61223 2.2849,-6.27941 2.28492,-11.00155 -2e-5,-4.7422 -0.76166,-8.41943 -2.28492,-11.03171 -1.52331,-2.61222 -3.67475,-3.91833 -6.45433,-3.91836 m 0,-8.40942 c 5.6534,5e-5 10.08192,2.06974 13.28555,6.20911 3.20357,4.13943 4.80538,9.85621 4.80542,17.15038 -4e-5,7.27411 -1.60185,12.98084 -4.80542,17.12024 -3.20363,4.1394 -7.63215,6.20909 -13.28555,6.20909 -5.63774,0 -10.06625,-2.06969 -13.28557,-6.20909 -3.20361,-4.1394 -4.8054,-9.84613 -4.8054,-17.12024 0,-7.29417 1.60179,-13.01095 4.8054,-17.15038 3.21932,-4.13937 7.64783,-6.20906 13.28557,-6.20911" />
        <path
           inkscape:connector-curvature="0"
           id="path3000"
           style="font-size:40px;font-style:normal;font-variant:normal;font-weight:bold;font-stretch:normal;text-align:start;line-height:125%;letter-spacing:0px;word-spacing:0px;writing-mode:lr-tb;text-anchor:start;fill:#000029;fill-opacity:1;stroke:none;font-family:ContextNavigation;-inkscape-font-specification:ContextNavigation Bold"
           d="m 316.40756,511.13876 -4.32735,-4.22182 -2.8648,-10.83985 6.89059,2.41247"
           sodipodi:nodetypes="cccc" />
        <path
           inkscape:connector-curvature="0"
           id="path3002"
           style="font-size:40px;font-style:normal;font-variant:normal;font-weight:bold;font-stretch:normal;text-align:start;line-height:125%;letter-spacing:0px;word-spacing:0px;writing-mode:lr-tb;text-anchor:start;fill:#00002f;fill-opacity:1;stroke:none;font-family:ContextNavigation;-inkscape-font-specification:ContextNavigation Bold"
           d="m 334.59496,509.20817 0,6.17188 c -1.65407,-0.71613 -3.26777,-1.25649 -4.84109,-1.6211 -1.57338,-0.36456 -3.05933,-0.54685 -4.45785,-0.54687 -1.85577,2e-5 -3.22741,0.24742 -4.11493,0.74218 -0.88754,0.49482 -1.33131,1.26305 -1.3313,2.30469 -10e-6,0.78127 0.29583,1.39325 0.88754,1.83594 0.60512,0.42971 1.69436,0.8008 3.26773,1.11328 l 3.30808,0.64453 c 3.34841,0.65106 5.72861,1.64064 7.14062,2.96875 1.41196,1.32814 2.11795,3.21616 2.11798,5.66406 -3e-5,3.21616 -0.98842,5.61199 -2.96518,7.1875 -1.96335,1.5625 -4.96886,2.34375 -9.01653,2.34375 -1.90956,0 -3.82582,-0.17578 -5.7488,-0.52734 -1.923,-0.35156 -3.84598,-0.87239 -5.76898,-1.5625 l 0,-6.34766 c 1.923,0.98959 3.77874,1.73829 5.56727,2.2461 1.80195,0.49479 3.53667,0.74219 5.20417,0.74219 1.69437,0 2.99205,-0.27344 3.89305,-0.82032 0.90096,-0.54687 1.35146,-1.32811 1.35147,-2.34375 -1e-5,-0.91145 -0.30931,-1.61457 -0.92787,-2.10937 -0.60516,-0.49478 -1.82215,-0.93749 -3.651,-1.32813 l -3.00551,-0.64453 c -3.01225,-0.62499 -5.21764,-1.62108 -6.61617,-2.98828 -1.38509,-1.36717 -2.07764,-3.20962 -2.07763,-5.52734 -10e-6,-2.90363 0.96821,-5.1367 2.90466,-6.69922 1.93643,-1.56247 4.72006,-2.34372 8.35088,-2.34375 1.65403,3e-5 3.35513,0.12373 5.10333,0.37109 1.74815,0.23441 3.55684,0.59248 5.42606,1.07422" />
      </g>
      <g
         transform="matrix(0.79377066,0,0,1.3632545,55.545076,-183.50034)"
         id="g3879">
        <path
           inkscape:connector-curvature="0"
           id="path3858"
           style="font-size:40px;font-style:italic;font-variant:normal;font-weight:bold;font-stretch:normal;text-align:start;line-height:125%;letter-spacing:0px;word-spacing:0px;writing-mode:lr-tb;text-anchor:start;fill:#14ad32;fill-opacity:1;stroke:#004001;stroke-opacity:1;font-family:LOGO10;-inkscape-font-specification:LOGO10 Bold Italic"
           d="m 192.08856,544.35864 7.51953,0 -5.11718,26.32813 c -0.75522,3.80208 -2.23959,6.55598 -4.45313,8.26172 -2.20052,1.71874 -5.39713,2.57811 -9.58984,2.57812 l -1.52344,0 1.11328,-5.68359 1.17188,0 c 1.54948,0 2.81901,-0.44271 3.80859,-1.32813 0.97656,-0.87239 1.6276,-2.14843 1.95312,-3.82812 l 5.11719,-26.32813" />
        <path
           inkscape:connector-curvature="0"
           id="path3860"
           style="font-size:40px;font-style:italic;font-variant:normal;font-weight:bold;font-stretch:normal;text-align:start;line-height:125%;letter-spacing:0px;word-spacing:0px;writing-mode:lr-tb;text-anchor:start;fill:#14ad32;fill-opacity:1;stroke:#004001;stroke-opacity:1;font-family:LOGO10;-inkscape-font-specification:LOGO10 Bold Italic"
           d="m 213.65106,563.67505 c -1.7448,10e-6 -3.06641,0.27345 -3.96484,0.82031 -0.88543,0.53386 -1.32813,1.32813 -1.32813,2.38281 0,0.79428 0.26041,1.41928 0.78125,1.875 0.53385,0.45574 1.26301,0.6836 2.1875,0.6836 1.43228,0 2.6302,-0.42969 3.59375,-1.28906 0.96353,-0.87239 1.60806,-2.09635 1.9336,-3.67188 l 0.15625,-0.80078 -3.35938,0 m 10.91797,-2.63672 -2.44141,12.48047 -6.99218,0 0.58593,-3.24219 c -1.14584,1.30209 -2.35678,2.26563 -3.63281,2.89063 -1.27605,0.61198 -2.66277,0.91796 -4.16015,0.91797 -2.07032,-10e-6 -3.71746,-0.53386 -4.94141,-1.60157 -1.21094,-1.08072 -1.81641,-2.53255 -1.81641,-4.35547 0,-2.78645 1.07422,-4.91535 3.22266,-6.38671 2.16145,-1.48437 5.27343,-2.22655 9.33594,-2.22657 l 4.12109,0 0.0781,-0.54687 c 0.039,-0.18228 0.0586,-0.31249 0.0586,-0.39063 0.013,-0.0781 0.0195,-0.14972 0.0195,-0.21484 -2e-5,-0.85936 -0.41017,-1.50389 -1.23047,-1.93359 -0.80731,-0.4427 -2.01173,-0.66405 -3.61328,-0.66407 -1.44532,2e-5 -2.84506,0.14976 -4.19922,0.44922 -1.35417,0.2995 -2.66276,0.74872 -3.92578,1.34766 l 1.05469,-5.33203 c 1.45832,-0.36457 2.94921,-0.638 4.47265,-0.82032 1.53645,-0.19529 3.12499,-0.29294 4.76563,-0.29296 3.24217,2e-5 5.65102,0.55991 7.22656,1.67968 1.5755,1.10679 2.36326,2.7995 2.36328,5.07813 -2e-5,0.44272 -0.0326,0.931 -0.0977,1.46484 -0.0521,0.52085 -0.13675,1.08725 -0.25391,1.69922" />
        <path
           inkscape:connector-curvature="0"
           id="path3862"
           style="font-size:40px;font-style:italic;font-variant:normal;font-weight:bold;font-stretch:normal;text-align:start;line-height:125%;letter-spacing:0px;word-spacing:0px;writing-mode:lr-tb;text-anchor:start;fill:#14ad32;fill-opacity:1;stroke:#004001;stroke-opacity:1;font-family:LOGO10;-inkscape-font-specification:LOGO10 Bold Italic"
           d="m 252.59637,555.27661 c 1.08071,-1.34112 2.30466,-2.36977 3.67188,-3.08594 1.38018,-0.71612 2.81247,-1.07419 4.29687,-1.07421 1.95309,2e-5 3.48955,0.54038 4.60938,1.62109 1.13277,1.06773 1.69918,2.53908 1.69922,4.41406 -4e-5,0.39064 -0.0326,0.83986 -0.0977,1.34766 -0.0521,0.4948 -0.13676,1.06121 -0.2539,1.69922 l -2.59766,13.32031 -7.05078,0 2.20703,-11.40625 0.0586,-0.29297 c 0.33851,-1.61457 0.50778,-2.64973 0.50782,-3.10547 -4e-5,-0.71613 -0.20837,-1.28253 -0.625,-1.69922 -0.40368,-0.41665 -0.95707,-0.62498 -1.66016,-0.625 -1.34117,2e-5 -2.4805,0.5534 -3.41797,1.66016 -0.9245,1.09376 -1.58857,2.66277 -1.99219,4.70703 l -2.10937,10.76172 -7.05078,0 2.24609,-11.40625 c 0.1953,-0.97655 0.33201,-1.71223 0.41016,-2.20703 0.0781,-0.5078 0.11717,-0.90494 0.11718,-1.19141 -1e-5,-0.72915 -0.20184,-1.29556 -0.60546,-1.69922 -0.40367,-0.41665 -0.96356,-0.62498 -1.67969,-0.625 -1.28908,2e-5 -2.42189,0.57294 -3.39844,1.71875 -0.96355,1.13283 -1.63412,2.68231 -2.01172,4.64844 l -2.10937,10.76172 -7.01172,0 4.25781,-21.875 7.03125,0 -0.64453,3.20312 c 1.09374,-1.23696 2.2591,-2.16794 3.49609,-2.79296 1.23697,-0.62498 2.52603,-0.93748 3.86719,-0.9375 1.5104,2e-5 2.80597,0.39064 3.88672,1.17187 1.0807,0.76825 1.73175,1.76434 1.95312,2.98828" />
        <path
           inkscape:connector-curvature="0"
           id="path3864"
           style="font-size:40px;font-style:italic;font-variant:normal;font-weight:bold;font-stretch:normal;text-align:start;line-height:125%;letter-spacing:0px;word-spacing:0px;writing-mode:lr-tb;text-anchor:start;fill:#14ad32;fill-opacity:1;stroke:#004001;stroke-opacity:1;font-family:LOGO10;-inkscape-font-specification:LOGO10 Bold Italic"
           d="m 282.40106,563.67505 c -1.7448,10e-6 -3.06641,0.27345 -3.96484,0.82031 -0.88543,0.53386 -1.32813,1.32813 -1.32813,2.38281 0,0.79428 0.26041,1.41928 0.78125,1.875 0.53385,0.45574 1.26301,0.6836 2.1875,0.6836 1.43228,0 2.6302,-0.42969 3.59375,-1.28906 0.96353,-0.87239 1.60806,-2.09635 1.9336,-3.67188 l 0.15625,-0.80078 -3.35938,0 m 10.91797,-2.63672 -2.44141,12.48047 -6.99218,0 0.58593,-3.24219 c -1.14584,1.30209 -2.35678,2.26563 -3.63281,2.89063 -1.27605,0.61198 -2.66277,0.91796 -4.16015,0.91797 -2.07032,-10e-6 -3.71746,-0.53386 -4.94141,-1.60157 -1.21094,-1.08072 -1.81641,-2.53255 -1.81641,-4.35547 0,-2.78645 1.07422,-4.91535 3.22266,-6.38671 2.16145,-1.48437 5.27343,-2.22655 9.33594,-2.22657 l 4.12109,0 0.0781,-0.54687 c 0.039,-0.18228 0.0586,-0.31249 0.0586,-0.39063 0.013,-0.0781 0.0195,-0.14972 0.0195,-0.21484 -2e-5,-0.85936 -0.41017,-1.50389 -1.23047,-1.93359 -0.80731,-0.4427 -2.01173,-0.66405 -3.61328,-0.66407 -1.44532,2e-5 -2.84506,0.14976 -4.19922,0.44922 -1.35417,0.2995 -2.66276,0.74872 -3.92578,1.34766 l 1.05469,-5.33203 c 1.45832,-0.36457 2.94921,-0.638 4.47265,-0.82032 1.53645,-0.19529 3.12499,-0.29294 4.76563,-0.29296 3.24217,2e-5 5.65102,0.55991 7.22656,1.67968 1.5755,1.10679 2.36326,2.7995 2.36328,5.07813 -2e-5,0.44272 -0.0326,0.931 -0.0976,1.46484 -0.0521,0.52085 -0.13675,1.08725 -0.25391,1.69922" />
      </g>
      <g
         transform="matrix(0.79377066,0,0,1.3632545,54.41637,-188.83118)"
         id="g3885">
        <path
           inkscape:connector-curvature="0"
           id="path3866"
           style="font-size:40px;font-style:italic;font-variant:normal;font-weight:bold;font-stretch:normal;text-align:start;line-height:125%;letter-spacing:0px;word-spacing:0px;writing-mode:lr-tb;text-anchor:start;fill:#14ad32;fill-opacity:1;stroke:#004001;stroke-opacity:1;font-family:LOGO10;-inkscape-font-specification:LOGO10 Bold Italic"
           d="m 297.14606,562.84406 7.51953,0 -5.11719,26.32813 c -0.75522,3.80208 -2.23959,6.55598 -4.45312,8.26172 -2.20053,1.71874 -5.39714,2.57811 -9.58985,2.57812 l -1.52344,0 1.11329,-5.68359 1.17187,0 c 1.54948,0 2.81901,-0.44271 3.80859,-1.32813 0.97657,-0.87239 1.62761,-2.14843 1.95313,-3.82812 l 5.11719,-26.32813" />
        <path
           inkscape:connector-curvature="0"
           id="path3868"
           style="font-size:40px;font-style:italic;font-variant:normal;font-weight:bold;font-stretch:normal;text-align:start;line-height:125%;letter-spacing:0px;word-spacing:0px;writing-mode:lr-tb;text-anchor:start;fill:#14ad32;fill-opacity:1;stroke:#004001;stroke-opacity:1;font-family:LOGO10;-inkscape-font-specification:LOGO10 Bold Italic"
           d="m 318.70856,582.16047 c -1.74481,10e-6 -3.06642,0.27345 -3.96485,0.82031 -0.88542,0.53386 -1.32813,1.32813 -1.32812,2.38281 -1e-5,0.79428 0.26041,1.41928 0.78125,1.875 0.53384,0.45574 1.26301,0.6836 2.1875,0.6836 1.43228,0 2.63019,-0.42969 3.59375,-1.28906 0.96352,-0.87239 1.60806,-2.09635 1.93359,-3.67188 l 0.15625,-0.80078 -3.35937,0 m 10.91797,-2.63672 -2.44141,12.48047 -6.99219,0 0.58594,-3.24219 c -1.14585,1.30209 -2.35678,2.26563 -3.63281,2.89063 -1.27605,0.61198 -2.66277,0.91796 -4.16016,0.91797 -2.07032,-1e-5 -3.71745,-0.53386 -4.94141,-1.60157 -1.21093,-1.08072 -1.8164,-2.53255 -1.8164,-4.35547 0,-2.78645 1.07422,-4.91535 3.22265,-6.38671 2.16146,-1.48437 5.27343,-2.22655 9.33594,-2.22657 l 4.1211,0 0.0781,-0.54687 c 0.039,-0.18228 0.0586,-0.31249 0.0586,-0.39063 0.013,-0.0781 0.0195,-0.14972 0.0195,-0.21484 -2e-5,-0.85936 -0.41018,-1.50389 -1.23047,-1.93359 -0.80731,-0.4427 -2.01174,-0.66405 -3.61328,-0.66407 -1.44533,2e-5 -2.84507,0.14976 -4.19922,0.44922 -1.35418,0.2995 -2.66277,0.74872 -3.92578,1.34766 l 1.05468,-5.33203 c 1.45833,-0.36457 2.94921,-0.638 4.47266,-0.82032 1.53645,-0.19529 3.12499,-0.29294 4.76562,-0.29296 3.24217,2e-5 5.65103,0.55991 7.22657,1.67968 1.57549,1.10679 2.36325,2.7995 2.36328,5.07813 -3e-5,0.44272 -0.0326,0.931 -0.0977,1.46484 -0.0521,0.52085 -0.13674,1.08725 -0.2539,1.69922" />
        <path
           inkscape:connector-curvature="0"
           id="path3870"
           style="font-size:40px;font-style:italic;font-variant:normal;font-weight:bold;font-stretch:normal;text-align:start;line-height:125%;letter-spacing:0px;word-spacing:0px;writing-mode:lr-tb;text-anchor:start;fill:#14ad32;fill-opacity:1;stroke:#004001;stroke-opacity:1;font-family:LOGO10;-inkscape-font-specification:LOGO10 Bold Italic"
           d="m 335.09528,570.12922 6.44531,0 2.83203,15.27344 8.24219,-15.27344 7.08984,0 -12.85156,21.875 -7.40235,0 -4.35546,-21.875" />
      </g>
    </g>
  </g>
</svg>
